<svg xmlns="http://www.w3.org/2000/svg" width="430" height="430" fill="none" viewBox="0 0 430 430"><g stroke-linecap="round" stroke-linejoin="round" stroke-miterlimit="10" stroke-width="6"><path stroke="#121331" d="M170.5 179.799v-83.1m88.4 83.101V96.6M82 179.801h265.4m0 0v195.8H82v-195.8m265.4-.001L214.7 55 82 179.8"/><path stroke="#30e849" d="M276.859 254.461c15.881-19.546 16.085-40.155 12.69-48.444-10.322-1.194-28.939 2.792-44.82 22.337s-16.021 38.843-12.691 48.444c9.709 1.688 28.94-2.792 44.821-22.337m-93.259-.66c11.5 9.4 17.6 22.3 16.4 32.7-10 3.3-23.8.1-35.4-9.3-11.5-9.3-17.6-22.2-16.3-32.7 10-3.3 23.8 0 35.3 9.3"/><path stroke="#30e849" d="M200 286.601c6.1 7.3 11.2 16.9 13.9 28.4 1.1 5 1.6 9.8 1.6 14.1-.8-5.9-1.5-17.7 3.4-31 2.1-5.6 4.8-9.9 13.2-21.3"/><path stroke="#121331" d="M133.6 375.599c0-15.4 12.5-27.9 28-27.9 5.2 0 10 1.4 14.2 3.9 7.8-13.4 22.3-22.4 39-22.4s31.2 9 39 22.4c4.2-2.5 9-3.9 14.2-3.9 15.4 0 28 12.5 28 27.9"/></g></svg>